<?xml version="1.0" standalone="no"?>
<!DOCTYPE svg PUBLIC "-//W3C//DTD SVG 20010904//EN"
 "http://www.w3.org/TR/2001/REC-SVG-20010904/DTD/svg10.dtd">
<svg version="1.0" xmlns="http://www.w3.org/2000/svg"
 width="512.000000pt" height="512.000000pt" viewBox="0 0 512.000000 512.000000"
 preserveAspectRatio="xMidYMid meet">

<g transform="translate(0.000000,512.000000) scale(0.100000,-0.100000)"
fill="#000000" stroke="none">
<path d="M2257 4275 l-16 -34 -43 19 c-54 25 -84 25 -127 2 -51 -27 -71 -73
-71 -159 l0 -72 25 24 c25 26 63 32 96 15 16 -9 21 -6 31 17 7 15 13 29 14 31
0 1 21 -7 45 -18 56 -25 86 -25 126 0 46 28 63 67 63 147 l0 67 -39 -38 -40
-39 -17 37 c-10 20 -21 36 -24 36 -3 0 -14 -16 -23 -35z"/>
<path d="M1553 3749 c-43 -12 -90 -62 -103 -107 -5 -20 -10 -119 -10 -219 l0
-183 160 0 160 0 0 -100 0 -100 319 0 319 0 38 60 c28 42 45 60 60 60 23 0 21
-9 53 225 l6 50 163 3 162 2 0 160 0 160 -320 0 -320 0 0 -35 c0 -46 -37 -85
-80 -85 -43 0 -80 39 -80 85 l0 35 -247 -1 c-137 0 -262 -5 -280 -10z"/>
<path d="M3073 3189 c-111 -19 -260 -103 -301 -171 -12 -20 -26 -78 -37 -148
-19 -133 -25 -148 -62 -152 -27 -3 -28 -5 -35 -81 -5 -60 -15 -95 -40 -145
-18 -36 -38 -67 -44 -69 -6 -2 -35 28 -64 67 l-52 71 9 77 c6 42 10 78 9 79
-1 1 -201 4 -444 5 -367 3 -442 1 -442 -11 0 -10 -10 -11 -42 -6 -51 8 -1278
19 -1278 11 0 -3 158 -226 351 -496 374 -524 394 -547 506 -591 52 -20 80 -23
277 -27 l219 -4 -199 -199 -199 -199 -477 0 c-263 0 -478 -2 -478 -5 0 -15
471 -945 479 -945 5 0 249 86 543 192 l533 192 300 7 c267 6 374 15 436 34 18
6 19 -1 19 -134 l0 -141 305 0 c168 0 305 4 305 9 0 4 -47 39 -105 77 l-105
69 0 150 0 150 56 40 c73 52 190 169 254 253 67 88 163 284 195 396 35 122 44
191 55 395 11 200 32 312 85 456 21 55 44 125 53 156 l16 57 111 66 c60 37
160 98 220 136 61 38 133 82 160 97 l50 28 -305 3 -305 3 -35 50 c-69 99 -201
177 -335 199 -68 11 -89 11 -162 -1z"/>
</g>
</svg>
